<?xml version="1.0" encoding="UTF-8" standalone="no"?>
<!-- Created with Inkscape (http://www.inkscape.org/) -->

<svg
   width="22.040854mm"
   height="22.040848mm"
   viewBox="0 0 22.040854 22.040848"
   version="1.1"
   id="svg1"
   xmlns="http://www.w3.org/2000/svg"
   xmlns:svg="http://www.w3.org/2000/svg">
  <defs
     id="defs1">
    <clipPath
       clipPathUnits="userSpaceOnUse"
       id="clipPath171">
      <path
         d="M 0,1977.645 H 1920 V 0 H 0 Z"
         transform="translate(-342.40841,-1909.871)"
         id="path171" />
    </clipPath>
    <clipPath
       clipPathUnits="userSpaceOnUse"
       id="clipPath169">
      <path
         d="M 0,1977.645 H 1920 V 0 H 0 Z"
         transform="translate(-367.61901,-1926.4845)"
         id="path169" />
    </clipPath>
    <clipPath
       clipPathUnits="userSpaceOnUse"
       id="clipPath167">
      <path
         d="M 0,1977.645 H 1920 V 0 H 0 Z"
         transform="translate(-349.96431,-1952.6135)"
         id="path167" />
    </clipPath>
  </defs>
  <g
     id="layer1"
     transform="translate(-70.11458,-66.410414)">
    <path
       id="path166"
       d="m 0,0 c -17.253,0 -31.239,-13.986 -31.239,-31.239 0,-17.253 13.986,-31.239 31.239,-31.239 17.253,0 31.239,13.986 31.239,31.239 C 31.239,-13.986 17.253,0 0,0"
       style="fill:#ffffff;fill-opacity:1;fill-rule:nonzero;stroke:none"
       transform="matrix(0.35277776,0,0,-0.35277776,81.13501,66.410417)"
       clip-path="url(#clipPath167)" />
    <path
       id="path168"
       d="m 0,0 c 0,-1.467 -0.288,-2.892 -0.857,-4.236 -0.548,-1.296 -1.332,-2.46 -2.329,-3.457 -0.999,-0.998 -2.161,-1.782 -3.457,-2.33 -0.072,-0.03 -0.143,-0.059 -0.215,-0.087 l -7.835,7.834 h 3.813 c 1.266,0 2.295,1.04 2.275,2.311 -0.019,1.249 -1.061,2.241 -2.31,2.241 h -14.76 c -4.752,0 -8.605,3.853 -8.605,8.604 h 23.4 c 1.467,0 2.892,-0.288 4.236,-0.856 1.296,-0.549 2.459,-1.333 3.457,-2.33 C -2.189,6.696 -1.406,5.533 -0.858,4.237 -0.288,2.893 0,1.467 0,0 m -24.778,-2.276 h -7.737 l 16.472,-16.739 c 1.946,-1.976 4.602,-3.09 7.376,-3.09 h 7.737 l -16.473,16.739 c -1.945,1.977 -4.602,3.09 -7.375,3.09"
       style="fill:#00375e;fill-opacity:1;fill-rule:nonzero;stroke:none"
       transform="matrix(0.35277776,0,0,-0.35277776,87.363196,75.628147)"
       clip-path="url(#clipPath169)" />
    <path
       id="path170"
       d="m 0,0 c 0,-0.095 -0.005,-0.189 -0.014,-0.283 -0.009,-0.095 -0.023,-0.188 -0.042,-0.281 -0.018,-0.093 -0.041,-0.185 -0.068,-0.275 -0.028,-0.091 -0.06,-0.18 -0.096,-0.267 -0.036,-0.088 -0.077,-0.173 -0.121,-0.257 -0.045,-0.083 -0.094,-0.164 -0.146,-0.243 -0.053,-0.079 -0.109,-0.155 -0.169,-0.228 -0.06,-0.073 -0.124,-0.143 -0.191,-0.21 -0.067,-0.067 -0.137,-0.131 -0.21,-0.191 -0.073,-0.06 -0.149,-0.116 -0.228,-0.169 -0.079,-0.052 -0.16,-0.101 -0.243,-0.146 -0.084,-0.044 -0.169,-0.085 -0.257,-0.121 -0.087,-0.036 -0.176,-0.068 -0.267,-0.095 -0.09,-0.028 -0.182,-0.051 -0.275,-0.069 -0.093,-0.019 -0.186,-0.033 -0.281,-0.042 -0.094,-0.009 -0.188,-0.014 -0.283,-0.014 -0.095,0 -0.189,0.005 -0.283,0.014 -0.094,0.009 -0.188,0.023 -0.281,0.042 -0.093,0.018 -0.184,0.041 -0.275,0.069 -0.091,0.027 -0.18,0.059 -0.267,0.095 -0.088,0.036 -0.173,0.077 -0.257,0.121 -0.083,0.045 -0.164,0.094 -0.243,0.146 -0.079,0.053 -0.155,0.109 -0.228,0.169 -0.073,0.06 -0.143,0.124 -0.21,0.191 -0.067,0.067 -0.13,0.137 -0.191,0.21 -0.06,0.073 -0.116,0.149 -0.169,0.228 -0.052,0.079 -0.101,0.16 -0.145,0.243 -0.045,0.084 -0.085,0.169 -0.122,0.257 -0.036,0.087 -0.068,0.176 -0.095,0.267 -0.028,0.09 -0.051,0.182 -0.069,0.275 -0.019,0.093 -0.033,0.186 -0.042,0.281 -0.009,0.094 -0.014,0.188 -0.014,0.283 0,0.095 0.005,0.189 0.014,0.283 0.009,0.095 0.023,0.188 0.042,0.281 0.018,0.093 0.041,0.185 0.069,0.275 0.027,0.091 0.059,0.18 0.095,0.267 0.037,0.088 0.077,0.173 0.122,0.257 0.044,0.083 0.093,0.164 0.145,0.243 0.053,0.079 0.109,0.155 0.169,0.228 0.061,0.073 0.124,0.143 0.191,0.21 0.067,0.067 0.137,0.131 0.21,0.191 0.073,0.06 0.149,0.116 0.228,0.169 0.079,0.052 0.16,0.101 0.243,0.146 0.084,0.044 0.169,0.085 0.257,0.121 0.087,0.036 0.176,0.068 0.267,0.095 0.091,0.028 0.182,0.051 0.275,0.069 0.093,0.019 0.187,0.033 0.281,0.042 0.094,0.009 0.188,0.014 0.283,0.014 0.095,0 0.189,-0.005 0.283,-0.014 0.095,-0.009 0.188,-0.023 0.281,-0.042 0.093,-0.018 0.185,-0.041 0.275,-0.069 0.091,-0.027 0.18,-0.059 0.267,-0.095 0.088,-0.036 0.173,-0.077 0.257,-0.121 0.083,-0.045 0.164,-0.094 0.243,-0.146 0.079,-0.053 0.155,-0.109 0.228,-0.169 0.073,-0.06 0.143,-0.124 0.21,-0.191 0.067,-0.067 0.131,-0.137 0.191,-0.21 0.06,-0.073 0.116,-0.149 0.169,-0.228 0.052,-0.079 0.101,-0.16 0.146,-0.243 C -0.297,1.279 -0.256,1.194 -0.22,1.106 -0.184,1.019 -0.152,0.93 -0.124,0.839 -0.097,0.749 -0.074,0.657 -0.056,0.564 -0.037,0.471 -0.023,0.378 -0.014,0.283 -0.005,0.189 0,0.095 0,0"
       style="fill:#00375e;fill-opacity:1;fill-rule:nonzero;stroke:none"
       transform="matrix(0.35277776,0,0,-0.35277776,78.469455,81.489021)"
       clip-path="url(#clipPath171)" />
  </g>
</svg>
