<?xml version="1.0" encoding="UTF-8" standalone="no"?>
<!-- Created with Inkscape (http://www.inkscape.org/) -->

<svg
   width="9.6463509mm"
   height="13.151911mm"
   viewBox="0 0 9.6463509 13.151911"
   version="1.1"
   id="svg1"
   xmlns="http://www.w3.org/2000/svg"
   xmlns:svg="http://www.w3.org/2000/svg">
  <defs
     id="defs1">
    <clipPath
       clipPathUnits="userSpaceOnUse"
       id="clipPath132">
      <path
         d="M 0,1977.645 H 1920 V 0 H 0 Z"
         transform="translate(0,2.5000001e-5)"
         id="path132" />
    </clipPath>
    <clipPath
       clipPathUnits="userSpaceOnUse"
       id="clipPath136">
      <path
         d="M 0,1977.645 H 1920 V 0 H 0 Z"
         transform="translate(0,2.5000001e-5)"
         id="path136" />
    </clipPath>
    <clipPath
       clipPathUnits="userSpaceOnUse"
       id="clipPath138">
      <path
         d="M 0,1977.645 H 1920 V 0 H 0 Z"
         transform="translate(0,2.5000001e-5)"
         id="path138" />
    </clipPath>
    <clipPath
       clipPathUnits="userSpaceOnUse"
       id="clipPath140">
      <path
         d="M 0,1977.645 H 1920 V 0 H 0 Z"
         transform="translate(0,2.5000001e-5)"
         id="path140" />
    </clipPath>
    <clipPath
       clipPathUnits="userSpaceOnUse"
       id="clipPath144">
      <path
         d="M 0,1977.645 H 1920 V 0 H 0 Z"
         transform="translate(0,2.5000001e-5)"
         id="path144" />
    </clipPath>
    <clipPath
       clipPathUnits="userSpaceOnUse"
       id="clipPath146">
      <path
         d="M 0,1977.645 H 1920 V 0 H 0 Z"
         transform="translate(0,2.5000001e-5)"
         id="path146" />
    </clipPath>
    <clipPath
       clipPathUnits="userSpaceOnUse"
       id="clipPath150">
      <path
         d="M 0,1977.645 H 1920 V 0 H 0 Z"
         transform="translate(0,2.5000001e-5)"
         id="path150" />
    </clipPath>
    <clipPath
       clipPathUnits="userSpaceOnUse"
       id="clipPath152">
      <path
         d="M 0,1977.645 H 1920 V 0 H 0 Z"
         transform="translate(0,2.5000001e-5)"
         id="path152" />
    </clipPath>
    <clipPath
       clipPathUnits="userSpaceOnUse"
       id="clipPath154">
      <path
         d="M 0,1977.645 H 1920 V 0 H 0 Z"
         transform="translate(0,2.5000001e-5)"
         id="path154" />
    </clipPath>
    <clipPath
       clipPathUnits="userSpaceOnUse"
       id="clipPath130">
      <path
         d="M 0,1977.645 H 1920 V 0 H 0 Z"
         transform="translate(-1572.9984,-1557.3341)"
         id="path130" />
    </clipPath>
    <clipPath
       clipPathUnits="userSpaceOnUse"
       id="clipPath134">
      <path
         d="M 0,1977.645 H 1920 V 0 H 0 Z"
         transform="translate(0,2.5000001e-5)"
         id="path134" />
    </clipPath>
    <clipPath
       clipPathUnits="userSpaceOnUse"
       id="clipPath142">
      <path
         d="M 0,1977.645 H 1920 V 0 H 0 Z"
         transform="translate(0,2.5000001e-5)"
         id="path142" />
    </clipPath>
    <clipPath
       clipPathUnits="userSpaceOnUse"
       id="clipPath148">
      <path
         d="M 0,1977.645 H 1920 V 0 H 0 Z"
         transform="translate(0,2.5000001e-5)"
         id="path148" />
    </clipPath>
  </defs>
  <g
     id="layer1"
     transform="translate(-70.379167,-111.125)">
    <path
       id="path129"
       d="m 0,0 c 0,-5.11 -0.001,-10.22 0.001,-15.33 0,-1.352 0.745,-2.098 2.094,-2.098 6.884,-0.002 13.767,-0.002 20.65,0 1.344,0 2.107,0.76 2.107,2.095 0.002,10.208 0.002,20.416 -0.003,30.624 0,0.252 -0.026,0.513 -0.095,0.754 -0.243,0.848 -0.968,1.322 -1.987,1.322 -6.35,10e-4 -12.699,10e-4 -19.048,10e-4 -0.607,0 -1.214,0.006 -1.821,-0.002 C 1.235,17.357 0.702,17.087 0.318,16.54 0.04,16.144 -0.002,15.69 -0.002,15.221 0.001,10.147 0,5.074 0,0 m 23.333,18.608 c 0.775,-0.166 1.469,-0.468 2,-1.09 0.568,-0.664 0.763,-1.442 0.763,-2.291 -0.001,-9.576 0.001,-19.152 -0.003,-28.728 -0.001,-0.837 0.006,-1.676 -0.063,-2.508 -0.111,-1.319 -1.318,-2.486 -2.636,-2.608 -0.35,-0.033 -0.702,-0.053 -1.053,-0.053 -6.737,-0.003 -13.474,-10e-4 -20.211,-0.003 -1.105,-0.001 -2.045,0.347 -2.738,1.245 -0.49,0.635 -0.641,1.366 -0.64,2.152 0.005,5.206 0.003,10.413 0.003,15.62 0,4.952 0.003,9.903 -0.003,14.855 -0.001,0.839 0.168,1.609 0.72,2.269 0.487,0.582 1.099,0.938 1.841,1.08 0.057,0.011 0.111,0.04 0.166,0.06 z"
       style="fill:#ffffff;fill-opacity:1;fill-rule:nonzero;stroke:none"
       transform="matrix(0.35277776,0,0,-0.35277776,70.819433,117.68949)"
       clip-path="url(#clipPath130)" />
    <path
       id="path131"
       d="m 1594.715,1570.947 h -18.593 v -5.556 h 18.593 z m -9.299,-6.807 c -3.217,0 -6.433,0 -9.65,10e-4 -0.72,0 -0.914,0.19 -0.914,0.899 -10e-4,2.1 0,4.199 0,6.299 0,0.666 0.21,0.88 0.866,0.88 6.47,10e-4 12.94,10e-4 19.41,0 0.644,0 0.849,-0.206 0.849,-0.851 0,-2.124 0,-4.248 0,-6.371 0,-0.665 -0.196,-0.856 -0.874,-0.856 -3.229,-10e-4 -6.458,0 -9.687,-10e-4"
       style="fill:#ffffff;fill-opacity:1;fill-rule:nonzero;stroke:none"
       transform="matrix(0.35277776,0,0,-0.35277776,-484.09944,667.08235)"
       clip-path="url(#clipPath132)" />
    <path
       id="path133"
       d="m 1591.036,1543.044 h 3.668 v 11.13 h -3.668 z m 4.942,5.548 c 0,-1.978 0,-3.957 0,-5.935 -10e-4,-0.696 -0.185,-0.878 -0.887,-0.879 -1.481,0 -2.962,0 -4.443,0 -0.68,10e-4 -0.876,0.191 -0.876,0.856 -10e-4,3.981 -10e-4,7.962 0,11.943 0,0.67 0.194,0.864 0.871,0.866 1.481,0 2.962,0 4.443,0 0.705,-10e-4 0.891,-0.186 0.892,-0.879 0,-1.991 0,-3.981 0,-5.972"
       style="fill:#ffffff;fill-opacity:1;fill-rule:nonzero;stroke:none"
       transform="matrix(0.35277776,0,0,-0.35277776,-484.09944,667.08235)"
       clip-path="url(#clipPath134)" />
    <path
       id="path135"
       d="m 1576.12,1550.495 h 3.672 v 3.678 h -3.672 z m 1.855,-1.272 c -0.752,0 -1.505,0 -2.257,10e-4 -0.639,0 -0.865,0.22 -0.866,0.844 0,1.516 0,3.032 0,4.548 0,0.597 0.218,0.823 0.807,0.825 1.541,0.01 3.081,0.01 4.622,0 0.575,0 0.785,-0.219 0.787,-0.802 0.01,-1.54 0.01,-3.081 0,-4.621 0,-0.568 -0.23,-0.789 -0.801,-0.793 -0.764,-0.01 -1.528,0 -2.292,0"
       style="fill:#ffffff;fill-opacity:1;fill-rule:nonzero;stroke:none"
       transform="matrix(0.35277776,0,0,-0.35277776,-484.09944,667.08235)"
       clip-path="url(#clipPath136)" />
    <path
       id="path137"
       d="m 1576.113,1557.954 h 3.685 v 3.678 h -3.685 z m 1.824,-1.265 c -0.764,0 -1.528,-0.01 -2.292,10e-4 -0.569,0 -0.791,0.227 -0.792,0.798 0,1.541 -0.01,3.081 0,4.622 0,0.56 0.239,0.789 0.807,0.79 1.541,0 3.081,0 4.622,0 0.551,0 0.782,-0.221 0.785,-0.769 0.01,-1.565 0.01,-3.13 0,-4.694 0,-0.534 -0.223,-0.741 -0.764,-0.746 -0.789,-0.01 -1.577,0 -2.366,0"
       style="fill:#ffffff;fill-opacity:1;fill-rule:nonzero;stroke:none"
       transform="matrix(0.35277776,0,0,-0.35277776,-484.09944,667.08235)"
       clip-path="url(#clipPath138)" />
    <path
       id="path139"
       d="m 1587.269,1554.171 h -3.679 v -3.674 h 3.679 z m -1.837,1.272 c 0.752,0 1.504,0 2.256,-10e-4 0.625,0 0.84,-0.215 0.841,-0.825 0,-1.528 0,-3.057 0,-4.585 -10e-4,-0.568 -0.229,-0.805 -0.79,-0.807 -1.541,0 -3.082,0 -4.622,0 -0.57,0 -0.797,0.225 -0.799,0.793 0,1.54 0,3.081 0,4.621 0,0.598 0.21,0.798 0.821,0.803 0.764,0.01 1.528,10e-4 2.293,10e-4"
       style="fill:#ffffff;fill-opacity:1;fill-rule:nonzero;stroke:none"
       transform="matrix(0.35277776,0,0,-0.35277776,-484.09944,667.08235)"
       clip-path="url(#clipPath140)" />
    <path
       id="path141"
       d="m 1579.794,1546.709 h -3.678 v -3.672 h 3.678 z m -1.84,1.272 c 0.788,0 1.577,0 2.365,-10e-4 0.513,0 0.744,-0.215 0.747,-0.725 0.01,-1.588 0.01,-3.177 -10e-4,-4.766 0,-0.488 -0.24,-0.707 -0.726,-0.709 -1.59,0 -3.179,0 -4.768,10e-4 -0.46,10e-4 -0.711,0.231 -0.714,0.689 -0.012,1.601 -0.011,3.202 -10e-4,4.803 0,0.479 0.247,0.703 0.732,0.706 0.789,0.01 1.577,0 2.366,0"
       style="fill:#ffffff;fill-opacity:1;fill-rule:nonzero;stroke:none"
       transform="matrix(0.35277776,0,0,-0.35277776,-484.09944,667.08235)"
       clip-path="url(#clipPath142)" />
    <path
       id="path143"
       d="m 1591.03,1557.961 h 3.675 v 3.679 h -3.675 z m 4.948,1.82 c 0,-0.776 0,-1.552 0,-2.328 0,-0.538 -0.212,-0.759 -0.744,-0.762 -1.565,-0.01 -3.13,-0.01 -4.695,0 -0.552,0 -0.763,0.224 -0.764,0.781 0,1.553 0,3.105 0,4.658 10e-4,0.542 0.231,0.768 0.784,0.77 1.552,0 3.105,0 4.658,0 0.53,0 0.757,-0.229 0.761,-0.752 0.01,-0.789 0,-1.577 0,-2.366"
       style="fill:#ffffff;fill-opacity:1;fill-rule:nonzero;stroke:none"
       transform="matrix(0.35277776,0,0,-0.35277776,-484.09944,667.08235)"
       clip-path="url(#clipPath144)" />
    <path
       id="path145"
       d="m 1587.268,1561.635 h -3.677 v -3.683 h 3.677 z m -1.863,-4.946 c -0.764,0 -1.528,-0.01 -2.292,10e-4 -0.585,0 -0.793,0.206 -0.795,0.788 0,1.54 0,3.081 0,4.621 0,0.591 0.222,0.8 0.825,0.801 1.516,0 3.033,0 4.549,0 0.617,0 0.836,-0.218 0.837,-0.832 0,-1.516 0,-3.032 10e-4,-4.548 -10e-4,-0.619 -0.21,-0.827 -0.832,-0.83 -0.764,0 -1.528,-10e-4 -2.293,-10e-4"
       style="fill:#ffffff;fill-opacity:1;fill-rule:nonzero;stroke:none"
       transform="matrix(0.35277776,0,0,-0.35277776,-484.09944,667.08235)"
       clip-path="url(#clipPath146)" />
    <path
       id="path147"
       d="m 1583.591,1543.05 h 3.677 v 3.673 h -3.677 z m 1.812,-1.272 c -0.776,0 -1.552,0 -2.329,0 -0.528,0 -0.752,0.219 -0.755,0.753 -0.01,1.565 -0.01,3.129 0,4.694 0,0.536 0.223,0.752 0.754,0.753 1.564,0 3.129,0 4.694,0 0.525,-10e-4 0.759,-0.228 0.761,-0.751 0.01,-1.565 0.01,-3.129 0,-4.694 0,-0.524 -0.237,-0.752 -0.759,-0.755 -0.789,0 -1.577,0 -2.366,0"
       style="fill:#ffffff;fill-opacity:1;fill-rule:nonzero;stroke:none"
       transform="matrix(0.35277776,0,0,-0.35277776,-484.09944,667.08235)"
       clip-path="url(#clipPath148)" />
    <path
       id="path149"
       d="m 1588.514,1566.645 h -1.205 v 1.189 h 1.205 z"
       style="fill:#ffffff;fill-opacity:1;fill-rule:nonzero;stroke:none"
       transform="matrix(0.35277776,0,0,-0.35277776,-484.09944,667.08235)"
       clip-path="url(#clipPath150)" />
    <path
       id="path151"
       d="m 1590.996,1566.642 h -1.194 v 1.194 h 1.194 z"
       style="fill:#ffffff;fill-opacity:1;fill-rule:nonzero;stroke:none"
       transform="matrix(0.35277776,0,0,-0.35277776,-484.09944,667.08235)"
       clip-path="url(#clipPath152)" />
    <path
       id="path153"
       d="m 1592.261,1567.832 h 1.206 v -1.187 h -1.206 z"
       style="fill:#ffffff;fill-opacity:1;fill-rule:nonzero;stroke:none"
       transform="matrix(0.35277776,0,0,-0.35277776,-484.09944,667.08235)"
       clip-path="url(#clipPath154)" />
  </g>
</svg>
