<?xml version="1.0" encoding="UTF-8" standalone="no"?>
<!-- Created with Inkscape (http://www.inkscape.org/) -->

<svg
   width="11.197164mm"
   height="11.197169mm"
   viewBox="0 0 11.197164 11.197169"
   version="1.1"
   id="svg1"
   xmlns="http://www.w3.org/2000/svg"
   xmlns:svg="http://www.w3.org/2000/svg">
  <defs
     id="defs1">
    <clipPath
       clipPathUnits="userSpaceOnUse"
       id="clipPath108-4">
      <path
         d="M 0,1977.645 H 1920 V 0 H 0 Z"
         transform="translate(-1161.5748,-1940.4346)"
         id="path108-3" />
    </clipPath>
    <clipPath
       clipPathUnits="userSpaceOnUse"
       id="clipPath112-0">
      <path
         d="M 0,1977.645 H 1920 V 0 H 0 Z"
         transform="translate(-1167.2314,-1929.0055)"
         id="path112-7" />
    </clipPath>
  </defs>
  <g
     id="layer1"
     transform="translate(-59.002073,-144.72709)">
    <path
       id="path107"
       d="m 0,0 c -8.765,0 -15.87,-7.105 -15.87,-15.87 0,-8.765 7.105,-15.87 15.87,-15.87 8.765,0 15.87,7.105 15.87,15.87 C 15.87,-7.105 8.765,0 0,0 m 0,-2.172 c 7.553,0 13.698,-6.145 13.698,-13.698 0,-7.553 -6.145,-13.698 -13.698,-13.698 -7.553,0 -13.698,6.145 -13.698,13.698 0,7.553 6.145,13.698 13.698,13.698"
       style="fill:#ffffff;fill-opacity:1;fill-rule:nonzero;stroke:none"
       transform="matrix(0.35277776,0,0,-0.35277776,64.600655,144.72709)"
       clip-path="url(#clipPath108-4)" />
    <path
       id="path111"
       d="m 0,0 c -0.001,-0.557 -0.454,-1.008 -1.012,-1.007 -0.557,0.002 -1.008,0.455 -1.006,1.012 10e-4,0.557 0.454,1.008 1.011,1.007 C -0.449,1.01 0.001,0.557 0,0 m -5.518,-7.258 c -1.539,0.014 -2.776,1.273 -2.762,2.812 0.014,1.54 1.273,2.777 2.812,2.763 1.54,-0.014 2.777,-1.273 2.763,-2.813 -0.014,-1.539 -1.273,-2.776 -2.813,-2.762 m 0.03,7.095 c -2.381,0.001 -4.311,-1.927 -4.313,-4.308 -10e-4,-2.381 1.928,-4.312 4.308,-4.313 2.381,-10e-4 4.312,1.927 4.313,4.308 0.002,2.381 -1.927,4.312 -4.308,4.313 m 6.721,-8.523 c -0.225,-1.469 -1.2,-2.378 -2.676,-2.539 -1.356,-0.149 -7.412,-0.231 -8.67,0.121 -1.203,0.336 -1.891,1.163 -2.091,2.375 -0.191,1.156 -0.238,6.936 -0.002,8.483 0.221,1.456 1.195,2.365 2.663,2.529 1.49,0.166 6.849,0.185 8.276,-0.034 1.465,-0.225 2.373,-1.201 2.534,-2.68 0.15,-1.38 0.193,-6.772 -0.034,-8.255 m 1.547,8.4 C 2.667,0.82 2.243,1.799 1.421,2.583 0.556,3.409 -0.502,3.773 -1.662,3.835 -3.638,3.943 -8.329,4.011 -9.977,3.742 c -1.882,-0.307 -3.116,-1.405 -3.637,-3.265 -0.4,-1.43 -0.321,-8.023 -0.087,-9.437 0.319,-1.933 1.461,-3.173 3.377,-3.666 1.326,-0.343 7.843,-0.299 9.306,-0.062 1.935,0.313 3.179,1.449 3.682,3.362 0.385,1.468 0.25,7.716 0.116,9.04"
       style="fill:#ffffff;fill-opacity:1;fill-rule:nonzero;stroke:none"
       transform="matrix(0.35277776,0,0,-0.35277776,66.596195,148.75902)"
       clip-path="url(#clipPath112-0)" />
  </g>
</svg>
