<?xml version="1.0" encoding="UTF-8" standalone="no"?>
<!-- Created with Inkscape (http://www.inkscape.org/) -->

<svg
   width="76.006851mm"
   height="22.040848mm"
   viewBox="0 0 76.006851 22.040848"
   version="1.1"
   id="svg1"
   xmlns="http://www.w3.org/2000/svg"
   xmlns:svg="http://www.w3.org/2000/svg">
  <defs
     id="defs1">
    <clipPath
       clipPathUnits="userSpaceOnUse"
       id="clipPath169">
      <path
         d="M 0,1977.645 H 1920 V 0 H 0 Z"
         transform="translate(-367.61901,-1926.4845)"
         id="path169" />
    </clipPath>
    <clipPath
       clipPathUnits="userSpaceOnUse"
       id="clipPath171">
      <path
         d="M 0,1977.645 H 1920 V 0 H 0 Z"
         transform="translate(-342.40841,-1909.871)"
         id="path171" />
    </clipPath>
    <clipPath
       clipPathUnits="userSpaceOnUse"
       id="clipPath173">
      <path
         d="M 0,1977.645 H 1920 V 0 H 0 Z"
         transform="translate(-400.76351,-1915.1913)"
         id="path173" />
    </clipPath>
    <clipPath
       clipPathUnits="userSpaceOnUse"
       id="clipPath175">
      <path
         d="M 0,1977.645 H 1920 V 0 H 0 Z"
         transform="translate(-433.43751,-1932.3899)"
         id="path175" />
    </clipPath>
    <clipPath
       clipPathUnits="userSpaceOnUse"
       id="clipPath177">
      <path
         d="M 0,1977.645 H 1920 V 0 H 0 Z"
         transform="translate(-447.68181,-1933.7264)"
         id="path177" />
    </clipPath>
    <clipPath
       clipPathUnits="userSpaceOnUse"
       id="clipPath179">
      <path
         d="M 0,1977.645 H 1920 V 0 H 0 Z"
         transform="translate(-483.62661,-1933.7264)"
         id="path179" />
    </clipPath>
    <clipPath
       clipPathUnits="userSpaceOnUse"
       id="clipPath181">
      <path
         d="M 0,1977.645 H 1920 V 0 H 0 Z"
         transform="translate(-503.77972,-1919.0953)"
         id="path181" />
    </clipPath>
    <clipPath
       clipPathUnits="userSpaceOnUse"
       id="clipPath183">
      <path
         d="M 0,1977.645 H 1920 V 0 H 0 Z"
         transform="translate(-523.72171,-1919.0953)"
         id="path183" />
    </clipPath>
    <clipPath
       clipPathUnits="userSpaceOnUse"
       id="clipPath187">
      <path
         d="M 0,1977.645 H 1920 V 0 H 0 Z"
         transform="translate(-394.23101,-1902.7544)"
         id="path187" />
    </clipPath>
    <clipPath
       clipPathUnits="userSpaceOnUse"
       id="clipPath189">
      <path
         d="M 0,1977.645 H 1920 V 0 H 0 Z"
         transform="translate(-401.20631,-1905.293)"
         id="path189" />
    </clipPath>
    <clipPath
       clipPathUnits="userSpaceOnUse"
       id="clipPath191">
      <path
         d="M 0,1977.645 H 1920 V 0 H 0 Z"
         transform="translate(-411.44871,-1902.655)"
         id="path191" />
    </clipPath>
    <clipPath
       clipPathUnits="userSpaceOnUse"
       id="clipPath193">
      <path
         d="M 0,1977.645 H 1920 V 0 H 0 Z"
         transform="translate(-419.37331,-1906.2422)"
         id="path193" />
    </clipPath>
    <clipPath
       clipPathUnits="userSpaceOnUse"
       id="clipPath195">
      <path
         d="M 0,1977.645 H 1920 V 0 H 0 Z"
         transform="translate(-426.53611,-1901.0546)"
         id="path195" />
    </clipPath>
    <clipPath
       clipPathUnits="userSpaceOnUse"
       id="clipPath197">
      <path
         d="M 0,1977.645 H 1920 V 0 H 0 Z"
         transform="translate(-432.82711,-1901.5955)"
         id="path197" />
    </clipPath>
    <clipPath
       clipPathUnits="userSpaceOnUse"
       id="clipPath199">
      <path
         d="M 0,1977.645 H 1920 V 0 H 0 Z"
         transform="translate(-441.76711,-1902.655)"
         id="path199" />
    </clipPath>
    <clipPath
       clipPathUnits="userSpaceOnUse"
       id="clipPath201">
      <path
         d="M 0,1977.645 H 1920 V 0 H 0 Z"
         transform="translate(-451.72211,-1902.655)"
         id="path201" />
    </clipPath>
    <clipPath
       clipPathUnits="userSpaceOnUse"
       id="clipPath203">
      <path
         d="M 0,1977.645 H 1920 V 0 H 0 Z"
         transform="translate(-455.23161,-1905.293)"
         id="path203" />
    </clipPath>
    <clipPath
       clipPathUnits="userSpaceOnUse"
       id="clipPath205">
      <path
         d="M 0,1977.645 H 1920 V 0 H 0 Z"
         transform="translate(0,2.5000001e-5)"
         id="path205" />
    </clipPath>
    <clipPath
       clipPathUnits="userSpaceOnUse"
       id="clipPath207">
      <path
         d="M 0,1977.645 H 1920 V 0 H 0 Z"
         transform="translate(-471.21311,-1906.2422)"
         id="path207" />
    </clipPath>
    <clipPath
       clipPathUnits="userSpaceOnUse"
       id="clipPath209">
      <path
         d="M 0,1977.645 H 1920 V 0 H 0 Z"
         transform="translate(-473.43141,-1901.198)"
         id="path209" />
    </clipPath>
    <clipPath
       clipPathUnits="userSpaceOnUse"
       id="clipPath211">
      <path
         d="M 0,1977.645 H 1920 V 0 H 0 Z"
         transform="translate(-480.37341,-1901.198)"
         id="path211" />
    </clipPath>
    <clipPath
       clipPathUnits="userSpaceOnUse"
       id="clipPath213">
      <path
         d="M 0,1977.645 H 1920 V 0 H 0 Z"
         transform="translate(-494.19161,-1902.655)"
         id="path213" />
    </clipPath>
    <clipPath
       clipPathUnits="userSpaceOnUse"
       id="clipPath215">
      <path
         d="M 0,1977.645 H 1920 V 0 H 0 Z"
         transform="translate(-497.70121,-1905.293)"
         id="path215" />
    </clipPath>
    <clipPath
       clipPathUnits="userSpaceOnUse"
       id="clipPath217">
      <path
         d="M 0,1977.645 H 1920 V 0 H 0 Z"
         transform="translate(-511.46431,-1902.655)"
         id="path217" />
    </clipPath>
    <clipPath
       clipPathUnits="userSpaceOnUse"
       id="clipPath219">
      <path
         d="M 0,1977.645 H 1920 V 0 H 0 Z"
         transform="translate(-518.48362,-1901.1761)"
         id="path219" />
    </clipPath>
    <clipPath
       clipPathUnits="userSpaceOnUse"
       id="clipPath221">
      <path
         d="M 0,1977.645 H 1920 V 0 H 0 Z"
         transform="translate(-521.90491,-1902.7544)"
         id="path221" />
    </clipPath>
    <clipPath
       clipPathUnits="userSpaceOnUse"
       id="clipPath167">
      <path
         d="M 0,1977.645 H 1920 V 0 H 0 Z"
         transform="translate(-349.96431,-1952.6135)"
         id="path167" />
    </clipPath>
    <clipPath
       clipPathUnits="userSpaceOnUse"
       id="clipPath185">
      <path
         d="M 0,1977.645 H 1920 V 0 H 0 Z"
         transform="translate(-531.49441,-1914.8396)"
         id="path185" />
    </clipPath>
    <clipPath
       clipPathUnits="userSpaceOnUse"
       id="clipPath223">
      <path
         d="M 0,1977.645 H 1920 V 0 H 0 Z"
         transform="translate(-532.05881,-1901.5955)"
         id="path223" />
    </clipPath>
  </defs>
  <g
     id="layer1"
     transform="translate(-63.500005,-92.868749)">
    <path
       id="path166"
       d="m 0,0 c -17.253,0 -31.239,-13.986 -31.239,-31.239 0,-17.253 13.986,-31.239 31.239,-31.239 17.253,0 31.239,13.986 31.239,31.239 C 31.239,-13.986 17.253,0 0,0"
       style="fill:#ffffff;fill-opacity:1;fill-rule:nonzero;stroke:none"
       transform="matrix(0.35277776,0,0,-0.35277776,74.520427,92.86875)"
       clip-path="url(#clipPath167)" />
    <path
       id="path168"
       d="m 0,0 c 0,-1.467 -0.288,-2.892 -0.857,-4.236 -0.548,-1.296 -1.332,-2.46 -2.329,-3.457 -0.999,-0.998 -2.161,-1.782 -3.457,-2.33 -0.072,-0.03 -0.143,-0.059 -0.215,-0.087 l -7.835,7.834 h 3.813 c 1.266,0 2.295,1.04 2.275,2.311 -0.019,1.249 -1.061,2.241 -2.31,2.241 h -14.76 c -4.752,0 -8.605,3.853 -8.605,8.604 h 23.4 c 1.467,0 2.892,-0.288 4.236,-0.856 1.296,-0.549 2.459,-1.333 3.457,-2.33 C -2.189,6.696 -1.406,5.533 -0.858,4.237 -0.288,2.893 0,1.467 0,0 m -24.778,-2.276 h -7.737 l 16.472,-16.739 c 1.946,-1.976 4.602,-3.09 7.376,-3.09 h 7.737 l -16.473,16.739 c -1.945,1.977 -4.602,3.09 -7.375,3.09"
       style="fill:#00375e;fill-opacity:1;fill-rule:nonzero;stroke:none"
       transform="matrix(0.35277776,0,0,-0.35277776,80.748613,102.08648)"
       clip-path="url(#clipPath169)" />
    <path
       id="path170"
       d="m 0,0 c 0,-0.095 -0.005,-0.189 -0.014,-0.283 -0.009,-0.095 -0.023,-0.188 -0.042,-0.281 -0.018,-0.093 -0.041,-0.185 -0.068,-0.275 -0.028,-0.091 -0.06,-0.18 -0.096,-0.267 -0.036,-0.088 -0.077,-0.173 -0.121,-0.257 -0.045,-0.083 -0.094,-0.164 -0.146,-0.243 -0.053,-0.079 -0.109,-0.155 -0.169,-0.228 -0.06,-0.073 -0.124,-0.143 -0.191,-0.21 -0.067,-0.067 -0.137,-0.131 -0.21,-0.191 -0.073,-0.06 -0.149,-0.116 -0.228,-0.169 -0.079,-0.052 -0.16,-0.101 -0.243,-0.146 -0.084,-0.044 -0.169,-0.085 -0.257,-0.121 -0.087,-0.036 -0.176,-0.068 -0.267,-0.095 -0.09,-0.028 -0.182,-0.051 -0.275,-0.069 -0.093,-0.019 -0.186,-0.033 -0.281,-0.042 -0.094,-0.009 -0.188,-0.014 -0.283,-0.014 -0.095,0 -0.189,0.005 -0.283,0.014 -0.094,0.009 -0.188,0.023 -0.281,0.042 -0.093,0.018 -0.184,0.041 -0.275,0.069 -0.091,0.027 -0.18,0.059 -0.267,0.095 -0.088,0.036 -0.173,0.077 -0.257,0.121 -0.083,0.045 -0.164,0.094 -0.243,0.146 -0.079,0.053 -0.155,0.109 -0.228,0.169 -0.073,0.06 -0.143,0.124 -0.21,0.191 -0.067,0.067 -0.13,0.137 -0.191,0.21 -0.06,0.073 -0.116,0.149 -0.169,0.228 -0.052,0.079 -0.101,0.16 -0.145,0.243 -0.045,0.084 -0.085,0.169 -0.122,0.257 -0.036,0.087 -0.068,0.176 -0.095,0.267 -0.028,0.09 -0.051,0.182 -0.069,0.275 -0.019,0.093 -0.033,0.186 -0.042,0.281 -0.009,0.094 -0.014,0.188 -0.014,0.283 0,0.095 0.005,0.189 0.014,0.283 0.009,0.095 0.023,0.188 0.042,0.281 0.018,0.093 0.041,0.185 0.069,0.275 0.027,0.091 0.059,0.18 0.095,0.267 0.037,0.088 0.077,0.173 0.122,0.257 0.044,0.083 0.093,0.164 0.145,0.243 0.053,0.079 0.109,0.155 0.169,0.228 0.061,0.073 0.124,0.143 0.191,0.21 0.067,0.067 0.137,0.131 0.21,0.191 0.073,0.06 0.149,0.116 0.228,0.169 0.079,0.052 0.16,0.101 0.243,0.146 0.084,0.044 0.169,0.085 0.257,0.121 0.087,0.036 0.176,0.068 0.267,0.095 0.091,0.028 0.182,0.051 0.275,0.069 0.093,0.019 0.187,0.033 0.281,0.042 0.094,0.009 0.188,0.014 0.283,0.014 0.095,0 0.189,-0.005 0.283,-0.014 0.095,-0.009 0.188,-0.023 0.281,-0.042 0.093,-0.018 0.185,-0.041 0.275,-0.069 0.091,-0.027 0.18,-0.059 0.267,-0.095 0.088,-0.036 0.173,-0.077 0.257,-0.121 0.083,-0.045 0.164,-0.094 0.243,-0.146 0.079,-0.053 0.155,-0.109 0.228,-0.169 0.073,-0.06 0.143,-0.124 0.21,-0.191 0.067,-0.067 0.131,-0.137 0.191,-0.21 0.06,-0.073 0.116,-0.149 0.169,-0.228 0.052,-0.079 0.101,-0.16 0.146,-0.243 C -0.297,1.279 -0.256,1.194 -0.22,1.106 -0.184,1.019 -0.152,0.93 -0.124,0.839 -0.097,0.749 -0.074,0.657 -0.056,0.564 -0.037,0.471 -0.023,0.378 -0.014,0.283 -0.005,0.189 0,0.095 0,0"
       style="fill:#00375e;fill-opacity:1;fill-rule:nonzero;stroke:none"
       transform="matrix(0.35277776,0,0,-0.35277776,71.854872,107.94735)"
       clip-path="url(#clipPath171)" />
    <path
       id="path172"
       d="m 0,0 h 0.105 c 0,-0.61 0.223,-1.132 0.669,-1.565 0.445,-0.434 0.972,-0.651 1.583,-0.651 H 2.779 V -2.568 H 0 Z m 4.185,22.052 c 1.056,0 2.087,-0.117 3.095,-0.351 1.008,-0.235 1.905,-0.61 2.691,-1.126 0.785,-0.516 1.412,-1.196 1.882,-2.04 0.469,-0.844 0.703,-1.887 0.703,-3.13 0,-0.985 -0.205,-1.964 -0.615,-2.937 C 11.53,11.495 10.903,10.662 10.059,9.971 9.215,9.279 8.125,8.863 6.788,8.722 7.538,8.488 8.224,8.066 8.846,7.456 9.467,6.846 9.977,6.237 10.376,5.627 10.399,5.58 10.534,5.369 10.78,4.994 c 0.246,-0.375 0.551,-0.838 0.914,-1.389 0.364,-0.551 0.745,-1.108 1.143,-1.671 0.399,-0.562 0.762,-1.055 1.091,-1.477 0.515,-0.633 0.985,-1.143 1.407,-1.53 0.422,-0.387 0.867,-0.668 1.336,-0.844 0.469,-0.176 1.008,-0.276 1.618,-0.299 v -0.352 h -3.447 c -1.266,0 -2.415,0.118 -3.447,0.352 C 10.363,-1.982 9.449,-1.6 8.652,-1.073 7.855,-0.545 7.163,0.176 6.577,1.09 6.389,1.372 6.184,1.729 5.962,2.163 5.738,2.597 5.51,3.06 5.276,3.552 5.041,4.045 4.812,4.52 4.59,4.977 4.367,5.434 4.173,5.85 4.01,6.225 3.845,6.6 3.728,6.894 3.658,7.104 3.353,7.855 2.995,8.417 2.585,8.793 2.175,9.168 1.735,9.391 1.266,9.461 v 0.352 h 0.422 0.669 c 0.633,0 1.248,0.128 1.846,0.387 0.598,0.257 1.131,0.68 1.6,1.266 0.469,0.586 0.797,1.395 0.985,2.427 0.047,0.211 0.088,0.457 0.123,0.738 0.035,0.282 0.041,0.598 0.018,0.95 -0.071,1.688 -0.493,2.924 -1.266,3.71 -0.774,0.786 -1.736,1.19 -2.884,1.214 C 2.45,20.528 2.093,20.534 1.706,20.522 1.319,20.51 0.967,20.505 0.651,20.505 H 0 c 0,0.023 -0.03,0.158 -0.088,0.404 -0.059,0.246 -0.147,0.627 -0.264,1.143 z m -4.08,-24.62 h -5.276 v 24.62 H 0.105 Z M -5.065,0 v -2.568 h -2.813 v 0.352 h 0.228 0.229 c 0.609,0 1.131,0.217 1.565,0.651 0.434,0.433 0.662,0.955 0.686,1.565 z m 0,19.485 H -5.17 c -0.024,0.609 -0.252,1.131 -0.686,1.565 -0.434,0.434 -0.956,0.651 -1.565,0.651 H -7.65 -7.878 v 0.351 h 2.813 z"
       style="fill:#ffffff;fill-opacity:1;fill-rule:nonzero;stroke:none"
       transform="matrix(0.35277776,0,0,-0.35277776,92.441254,106.07047)"
       clip-path="url(#clipPath173)" />
    <path
       id="path174"
       d="m 0,0 v -3.728 h -0.352 v 0.316 c 0,1.032 -0.276,1.841 -0.826,2.427 -0.551,0.586 -1.343,0.891 -2.374,0.915 V 0 Z M 0,1.864 V 1.02 l -3.693,0.317 c 0.68,0 1.395,0.064 2.145,0.193 C -0.797,1.659 -0.281,1.77 0,1.864 M -1.583,-9.953 v -3.095 h -0.351 v 0.281 c 0,0.774 -0.241,1.424 -0.721,1.952 -0.481,0.528 -1.132,0.791 -1.952,0.791 v 0.071 z m 0,4.361 v -3.095 h -3.024 v 0.07 c 0.82,0.023 1.471,0.299 1.952,0.827 0.48,0.527 0.721,1.178 0.721,1.952 v 0.246 z m 3.447,-7.703 -1.336,-6.471 h -6.085 l 1.09,1.407 c 1.008,0 1.905,0.205 2.691,0.615 0.785,0.41 1.459,0.997 2.022,1.759 0.563,0.761 0.997,1.658 1.302,2.69 z m -2.251,-5.064 0.809,-1.407 h -9.109 v 1.407 z m -1.196,8.335 h -7.105 v 1.407 h 7.105 z M 0,-0.07 H -8.687 V 1.337 H 0 Z m -8.617,-19.696 h -5.065 V 1.337 h 5.065 z m -4.959,2.216 0.141,-2.216 h -2.603 v 0.352 h 0.457 c 0.516,0 0.961,0.181 1.337,0.545 0.374,0.363 0.562,0.803 0.562,1.319 z m 0,16.671 h -0.106 c 0,0.539 -0.188,0.985 -0.562,1.336 -0.376,0.352 -0.821,0.528 -1.337,0.528 h -0.457 v 0.352 h 2.603 z"
       style="fill:#ffffff;fill-opacity:1;fill-rule:nonzero;stroke:none"
       transform="matrix(0.35277776,0,0,-0.35277776,103.96792,100.00319)"
       clip-path="url(#clipPath175)" />
    <path
       id="path176"
       d="m 0,0 c 2.509,0 4.666,-0.417 6.471,-1.249 1.806,-0.832 3.189,-2.039 4.151,-3.622 0.961,-1.583 1.442,-3.477 1.442,-5.68 0,-2.205 -0.481,-4.092 -1.442,-5.663 C 9.66,-17.785 8.277,-18.992 6.471,-19.837 4.666,-20.681 2.509,-21.103 0,-21.103 h -7.808 l -0.07,1.407 h 4.308 3.148 c 2.204,0 3.945,0.809 5.223,2.427 1.278,1.618 1.917,3.857 1.917,6.718 0,2.86 -0.639,5.105 -1.917,6.735 -1.278,1.629 -3.019,2.444 -5.223,2.444 H -3.693 -8.23 V 0 Z M -4.396,-21.103 H -9.461 V 0 h 5.065 z m -4.96,2.251 v -2.251 h -2.532 v 0.352 h 0.457 c 0.539,0 1.003,0.187 1.39,0.563 0.386,0.375 0.58,0.82 0.58,1.336 z m -0.035,16.636 h -0.07 c -0.024,0.539 -0.229,0.985 -0.616,1.337 -0.386,0.352 -0.85,0.527 -1.389,0.527 h -0.422 V 0 h 2.497 z"
       style="fill:#ffffff;fill-opacity:1;fill-rule:nonzero;stroke:none"
       transform="matrix(0.35277776,0,0,-0.35277776,108.99299,99.531699)"
       clip-path="url(#clipPath177)" />
    <path
       id="path178"
       d="m 0,0 v -0.317 h -0.457 c -0.446,0 -0.827,-0.14 -1.143,-0.422 -0.317,-0.281 -0.475,-0.645 -0.475,-1.09 h -0.07 V 0 Z m -4.326,0 v -1.829 h -0.07 c -0.024,0.445 -0.188,0.809 -0.493,1.09 -0.305,0.282 -0.668,0.422 -1.09,0.422 H -6.472 V 0 Z m -9.531,0 v -0.317 h -0.493 c -0.446,0 -0.821,-0.14 -1.125,-0.422 -0.305,-0.281 -0.458,-0.645 -0.458,-1.09 h -0.07 V 0 Z m -2.076,0 v -13.26 c 0,-2.157 0.498,-3.845 1.495,-5.064 0.997,-1.22 2.386,-1.829 4.168,-1.829 1.852,0 3.289,0.574 4.309,1.723 1.019,1.149 1.541,2.744 1.565,4.784 V 0 h 2.321 v -13.435 c 0,-2.51 -0.768,-4.491 -2.304,-5.944 -1.536,-1.454 -3.71,-2.181 -6.524,-2.181 -3.376,0 -5.903,0.721 -7.579,2.163 -1.677,1.442 -2.515,3.417 -2.515,5.926 V 0 Z m -4.994,0 v -1.829 h -0.07 c -0.024,0.445 -0.188,0.809 -0.493,1.09 -0.305,0.282 -0.68,0.422 -1.125,0.422 h -0.492 V 0 Z"
       style="fill:#ffffff;fill-opacity:1;fill-rule:nonzero;stroke:none"
       transform="matrix(0.35277776,0,0,-0.35277776,121.67352,99.531699)"
       clip-path="url(#clipPath179)" />
    <path
       id="path180"
       d="m 0,0 -1.512,-6.472 h -6.366 l 1.195,1.372 c 1.102,0 2.063,0.205 2.884,0.616 0.821,0.41 1.518,0.996 2.093,1.758 0.574,0.762 1.026,1.671 1.354,2.726 z m -1.653,-5.1 -0.246,-1.372 h -15.37 V -5.1 Z m -17.445,18.465 h 3.588 v -0.106 c -1.009,0 -1.8,-0.299 -2.375,-0.896 -0.574,-0.598 -0.861,-1.413 -0.861,-2.445 V 9.637 h -0.352 z m 0,1.829 c 0.187,-0.07 0.498,-0.147 0.932,-0.229 0.434,-0.082 0.914,-0.152 1.442,-0.211 0.528,-0.059 1.014,-0.088 1.46,-0.088 l -3.834,-0.351 z m 17.797,-0.106 v -0.281 l -12.24,-21.279 h -6.049 v 0.282 l 11.571,19.449 h -11.079 v 1.407 h 14.209 c 0.445,0 0.92,0.018 1.425,0.053 0.504,0.035 0.955,0.088 1.354,0.158 0.398,0.071 0.668,0.141 0.809,0.211"
       style="fill:#ffffff;fill-opacity:1;fill-rule:nonzero;stroke:none"
       transform="matrix(0.35277776,0,0,-0.35277776,128.78308,104.69323)"
       clip-path="url(#clipPath181)" />
    <path
       id="path182"
       d="m 0,0 -1.512,-6.472 h -6.366 l 1.196,1.372 c 1.101,0 2.062,0.205 2.883,0.616 0.821,0.41 1.518,0.996 2.093,1.758 0.574,0.762 1.026,1.671 1.354,2.726 z m -1.653,-5.1 -0.246,-1.372 h -15.37 V -5.1 Z m -17.445,18.465 h 3.588 v -0.106 c -1.009,0 -1.8,-0.299 -2.375,-0.896 -0.574,-0.598 -0.861,-1.413 -0.861,-2.445 V 9.637 h -0.352 z m 0,1.829 c 0.187,-0.07 0.498,-0.147 0.932,-0.229 0.434,-0.082 0.914,-0.152 1.442,-0.211 0.528,-0.059 1.014,-0.088 1.46,-0.088 l -3.834,-0.351 z m 17.797,-0.106 v -0.281 l -12.24,-21.279 h -6.049 v 0.282 l 11.571,19.449 h -11.079 v 1.407 h 14.209 c 0.445,0 0.92,0.018 1.425,0.053 0.504,0.035 0.955,0.088 1.354,0.158 0.398,0.071 0.668,0.141 0.809,0.211"
       style="fill:#ffffff;fill-opacity:1;fill-rule:nonzero;stroke:none"
       transform="matrix(0.35277776,0,0,-0.35277776,135.81818,104.69323)"
       clip-path="url(#clipPath183)" />
    <path
       id="path184"
       d="M 0,0 H 0.07 C 0.093,-0.516 0.299,-0.956 0.686,-1.319 1.073,-1.683 1.548,-1.864 2.11,-1.864 H 2.532 V -2.216 H 0 Z m 0,16.671 v 2.216 H 2.532 L 2.497,18.535 H 2.11 C 1.548,18.535 1.073,18.359 0.686,18.008 0.299,17.656 0.093,17.21 0.07,16.671 Z M 0.07,-2.216 H -4.995 V 18.887 H 0.07 Z M -4.889,0 v -2.216 h -2.567 v 0.352 h 0.457 c 0.539,0 1.008,0.181 1.407,0.545 0.398,0.363 0.598,0.803 0.598,1.319 z m 0,16.671 h -0.105 c 0,0.539 -0.2,0.985 -0.598,1.337 -0.399,0.351 -0.88,0.527 -1.442,0.527 h -0.422 v 0.352 h 2.567 z"
       style="fill:#ffffff;fill-opacity:1;fill-rule:nonzero;stroke:none"
       transform="matrix(0.35277776,0,0,-0.35277776,138.56021,106.19454)"
       clip-path="url(#clipPath185)" />
    <path
       id="path186"
       d="m 0,0 h 2.163 c 0.696,0 1.226,0.53 1.226,1.247 0,0.707 -0.53,1.236 -1.226,1.236 H 0 Z M 3.355,-3.687 1.556,-1.004 H 0 v -2.683 h -1.038 v 7.175 h 3.356 c 1.081,0 2.097,-0.85 2.097,-2.241 0,-1.214 -0.773,-2.02 -1.678,-2.207 l 1.821,-2.727 z"
       style="fill:#cccccc;fill-opacity:1;fill-rule:nonzero;stroke:none"
       transform="matrix(0.35277776,0,0,-0.35277776,90.136733,110.45793)"
       clip-path="url(#clipPath187)" />
    <path
       id="path188"
       d="m 0,0 v -2.163 h 3.455 v -0.95 H 0 V -5.276 H 3.686 V -6.225 H -1.038 V 0.949 H 3.686 V 0 Z"
       style="fill:#cccccc;fill-opacity:1;fill-rule:nonzero;stroke:none"
       transform="matrix(0.35277776,0,0,-0.35277776,92.597464,109.56237)"
       clip-path="url(#clipPath189)" />
    <path
       id="path190"
       d="m 0,0 c 0,1.843 -1.358,2.583 -2.505,2.583 h -1.469 v -5.166 h 1.469 c 1.147,0 2.516,0.74 2.505,2.583 m 1.038,0 c 0,-2.13 -1.424,-3.587 -3.543,-3.587 h -2.506 v 7.174 h 2.506 C -0.386,3.587 1.038,2.13 1.038,0"
       style="fill:#cccccc;fill-opacity:1;fill-rule:nonzero;stroke:none"
       transform="matrix(0.35277776,0,0,-0.35277776,96.210757,110.493)"
       clip-path="url(#clipPath191)" />
    <path
       id="path192"
       d="m 0,0 v -4.669 c 0,-1.446 -0.982,-2.594 -2.726,-2.594 -1.733,0 -2.727,1.148 -2.727,2.594 V 0 h 1.038 v -4.558 c 0,-1.126 0.706,-1.7 1.689,-1.7 0.993,0 1.7,0.574 1.7,1.7 V 0 Z"
       style="fill:#cccccc;fill-opacity:1;fill-rule:nonzero;stroke:none"
       transform="matrix(0.35277776,0,0,-0.35277776,99.006379,109.22751)"
       clip-path="url(#clipPath193)" />
    <path
       id="path194"
       d="m 0,0 0.839,-0.629 c -0.574,-0.839 -1.501,-1.369 -2.66,-1.435 l -0.188,-0.331 c 0.464,-0.066 0.718,-0.32 0.718,-0.673 0,-0.497 -0.354,-0.751 -0.939,-0.751 -0.165,0 -0.441,0.022 -0.607,0.099 v 0.552 c 0.155,-0.11 0.431,-0.143 0.607,-0.143 0.221,0 0.409,0.077 0.409,0.243 0,0.143 -0.177,0.22 -0.464,0.22 -0.077,0 -0.298,-0.022 -0.375,-0.055 l -0.011,0.442 c 0,0 0.011,0 0.011,0.011 l 0.243,0.386 c -1.943,0.166 -3.256,1.656 -3.256,3.664 0,2.131 1.479,3.676 3.609,3.676 1.269,0 2.285,-0.552 2.903,-1.446 L 0,3.223 c -0.419,0.585 -1.148,1.026 -2.064,1.026 -1.545,0 -2.572,-1.114 -2.572,-2.649 0,-1.523 1.027,-2.637 2.572,-2.637 0.916,0 1.645,0.463 2.064,1.037"
       style="fill:#cccccc;fill-opacity:1;fill-rule:nonzero;stroke:none"
       transform="matrix(0.35277776,0,0,-0.35277776,101.53326,111.05758)"
       clip-path="url(#clipPath195)" />
    <path
       id="path196"
       d="M 0,0 -1.214,3.046 -2.428,0 Z m -1.854,6.402 c 0.375,0 0.618,-0.188 0.783,-0.376 0.122,-0.132 0.265,-0.276 0.497,-0.276 0.309,0 0.397,0.243 0.408,0.519 H 0.441 C 0.43,5.64 0.099,5.143 -0.574,5.143 c -0.419,0 -0.64,0.21 -0.795,0.387 -0.143,0.154 -0.276,0.265 -0.463,0.265 -0.287,0 -0.387,-0.287 -0.398,-0.519 h -0.607 c 0.011,0.629 0.365,1.126 0.983,1.126 m 2.24,-7.351 h -3.201 l -0.629,-1.579 h -1.103 l 2.935,7.175 h 0.795 L 2.119,-2.528 H 1.015 Z"
       style="fill:#cccccc;fill-opacity:1;fill-rule:nonzero;stroke:none"
       transform="matrix(0.35277776,0,0,-0.35277776,103.75258,110.86677)"
       clip-path="url(#clipPath197)" />
    <path
       id="path198"
       d="m 0,0 c 0,1.534 -1.016,2.649 -2.55,2.649 -1.545,0 -2.571,-1.115 -2.571,-2.649 0,-1.523 1.026,-2.638 2.571,-2.638 C -1.016,-2.638 0,-1.523 0,0 m -6.159,0 c 0,2.13 1.479,3.676 3.609,3.676 2.13,0 3.576,-1.546 3.576,-3.676 0,-2.13 -1.446,-3.675 -3.576,-3.675 -2.13,0 -3.609,1.545 -3.609,3.675"
       style="fill:#cccccc;fill-opacity:1;fill-rule:nonzero;stroke:none"
       transform="matrix(0.35277776,0,0,-0.35277776,106.90641,110.493)"
       clip-path="url(#clipPath199)" />
    <path
       id="path200"
       d="m 0,0 c 0,1.843 -1.358,2.583 -2.505,2.583 h -1.468 v -5.166 h 1.468 c 1.147,0 2.516,0.74 2.505,2.583 m 1.038,0 c 0,-2.13 -1.424,-3.587 -3.543,-3.587 h -2.506 v 7.174 h 2.506 C -0.386,3.587 1.038,2.13 1.038,0"
       style="fill:#cccccc;fill-opacity:1;fill-rule:nonzero;stroke:none"
       transform="matrix(0.35277776,0,0,-0.35277776,110.41832,110.493)"
       clip-path="url(#clipPath201)" />
    <path
       id="path202"
       d="m 0,0 v -2.163 h 3.455 v -0.95 H 0 V -5.276 H 3.687 V -6.225 H -1.037 V 0.949 H 3.687 V 0 Z"
       style="fill:#cccccc;fill-opacity:1;fill-rule:nonzero;stroke:none"
       transform="matrix(0.35277776,0,0,-0.35277776,111.65639,109.56237)"
       clip-path="url(#clipPath203)" />
    <path
       id="path204"
       d="m 462.946,1906.242 h 1.038 v -7.174 h -1.038 z"
       style="fill:#cccccc;fill-opacity:1;fill-rule:nonzero;stroke:none"
       transform="matrix(0.35277776,0,0,-0.35277776,-48.9392,781.7074)"
       clip-path="url(#clipPath205)" />
    <path
       id="path206"
       d="m 0,0 v -7.174 h -1.004 l -3.587,5.419 V -7.174 H -5.618 V 0 h 0.993 l 3.588,-5.397 V 0 Z"
       style="fill:#cccccc;fill-opacity:1;fill-rule:nonzero;stroke:none"
       transform="matrix(0.35277776,0,0,-0.35277776,117.29431,109.22751)"
       clip-path="url(#clipPath207)" />
    <path
       id="path208"
       d="m 0,0 c 0.243,-0.574 1.126,-1.225 2.263,-1.225 1.103,0 1.534,0.419 1.534,1.115 0,0.828 -1.314,1.037 -1.921,1.225 -0.651,0.187 -2.45,0.508 -2.45,2.009 0,1.412 1.214,2.053 2.726,2.053 1.347,0 2.429,-0.696 2.704,-1.468 L 4.018,3.19 C 3.819,3.664 3.035,4.139 2.042,4.139 1.104,4.139 0.596,3.786 0.596,3.179 0.596,2.395 1.81,2.208 2.472,2.02 3.068,1.832 4.945,1.435 4.945,-0.066 c 0,-1.435 -1.071,-2.197 -2.793,-2.197 -1.578,0 -2.638,0.784 -2.991,1.689 z"
       style="fill:#cccccc;fill-opacity:1;fill-rule:nonzero;stroke:none"
       transform="matrix(0.35277776,0,0,-0.35277776,118.07688,111.007)"
       clip-path="url(#clipPath209)" />
    <path
       id="path210"
       d="m 0,0 c 0.243,-0.574 1.126,-1.225 2.263,-1.225 1.103,0 1.534,0.419 1.534,1.115 0,0.828 -1.314,1.037 -1.921,1.225 -0.651,0.187 -2.45,0.508 -2.45,2.009 0,1.412 1.214,2.053 2.726,2.053 1.347,0 2.429,-0.696 2.704,-1.468 L 4.018,3.19 C 3.819,3.664 3.035,4.139 2.042,4.139 1.104,4.139 0.596,3.786 0.596,3.179 0.596,2.395 1.81,2.208 2.472,2.02 3.068,1.832 4.945,1.435 4.945,-0.066 c 0,-1.435 -1.071,-2.197 -2.793,-2.197 -1.578,0 -2.638,0.784 -2.991,1.689 z"
       style="fill:#cccccc;fill-opacity:1;fill-rule:nonzero;stroke:none"
       transform="matrix(0.35277776,0,0,-0.35277776,120.52586,111.007)"
       clip-path="url(#clipPath211)" />
    <path
       id="path212"
       d="m 0,0 c 0,1.843 -1.358,2.583 -2.506,2.583 h -1.468 v -5.166 h 1.468 c 1.148,0 2.517,0.74 2.506,2.583 m 1.037,0 c 0,-2.13 -1.423,-3.587 -3.543,-3.587 h -2.505 v 7.174 h 2.505 C -0.386,3.587 1.037,2.13 1.037,0"
       style="fill:#cccccc;fill-opacity:1;fill-rule:nonzero;stroke:none"
       transform="matrix(0.35277776,0,0,-0.35277776,125.40061,110.493)"
       clip-path="url(#clipPath213)" />
    <path
       id="path214"
       d="m 0,0 v -2.163 h 3.455 v -0.95 H 0 V -5.276 H 3.687 V -6.225 H -1.038 V 0.949 H 3.687 V 0 Z"
       style="fill:#cccccc;fill-opacity:1;fill-rule:nonzero;stroke:none"
       transform="matrix(0.35277776,0,0,-0.35277776,126.63872,109.56237)"
       clip-path="url(#clipPath215)" />
    <path
       id="path216"
       d="m 0,0 c 0,1.534 -1.015,2.649 -2.55,2.649 -1.545,0 -2.571,-1.115 -2.571,-2.649 0,-1.523 1.026,-2.638 2.571,-2.638 C -1.015,-2.638 0,-1.523 0,0 m -6.159,0 c 0,2.13 1.479,3.676 3.609,3.676 2.131,0 3.577,-1.546 3.577,-3.676 0,-2.13 -1.446,-3.675 -3.577,-3.675 -2.13,0 -3.609,1.545 -3.609,3.675"
       style="fill:#cccccc;fill-opacity:1;fill-rule:nonzero;stroke:none"
       transform="matrix(0.35277776,0,0,-0.35277776,131.49404,110.493)"
       clip-path="url(#clipPath217)" />
    <path
       id="path218"
       d="M 0,0 C 0,0.64 -0.464,1.148 -1.17,1.148 H -3.521 V -1.159 H -1.17 C -0.453,-1.159 0,-0.64 0,0 m -3.521,2.009 h 2.119 c 0.685,0 1.137,0.419 1.137,1.059 0,0.64 -0.452,1.049 -1.137,1.049 H -3.521 Z M 1.06,-0.088 c 0,-1.236 -0.983,-2.02 -2.086,-2.02 h -3.532 v 7.174 h 3.322 C -0.132,5.066 0.795,4.36 0.795,3.113 0.795,2.395 0.486,1.91 0.011,1.611 0.629,1.313 1.06,0.728 1.06,-0.088"
       style="fill:#cccccc;fill-opacity:1;fill-rule:nonzero;stroke:none"
       transform="matrix(0.35277776,0,0,-0.35277776,133.97029,111.01476)"
       clip-path="url(#clipPath219)" />
    <path
       id="path220"
       d="m 0,0 h 2.163 c 0.696,0 1.225,0.53 1.225,1.247 0,0.707 -0.529,1.236 -1.225,1.236 H 0 Z M 3.355,-3.687 1.556,-1.004 H 0 v -2.683 h -1.038 v 7.175 h 3.356 c 1.082,0 2.097,-0.85 2.097,-2.241 0,-1.214 -0.773,-2.02 -1.678,-2.207 l 1.821,-2.727 z"
       style="fill:#cccccc;fill-opacity:1;fill-rule:nonzero;stroke:none"
       transform="matrix(0.35277776,0,0,-0.35277776,135.17725,110.45793)"
       clip-path="url(#clipPath221)" />
    <path
       id="path222"
       d="M 0,0 -1.214,3.046 -2.428,0 Z m 0.386,-0.949 h -3.2 l -0.63,-1.579 h -1.103 l 2.936,7.175 h 0.794 L 2.119,-2.528 H 1.016 Z"
       style="fill:#cccccc;fill-opacity:1;fill-rule:nonzero;stroke:none"
       transform="matrix(0.35277776,0,0,-0.35277776,138.75932,110.86677)"
       clip-path="url(#clipPath223)" />
  </g>
</svg>
