<?xml version="1.0" encoding="UTF-8" standalone="no"?>
<!-- Created with Inkscape (http://www.inkscape.org/) -->

<svg
   width="39.959766mm"
   height="39.971214mm"
   viewBox="0 0 39.959766 39.971214"
   version="1.1"
   id="svg1"
   xmlns="http://www.w3.org/2000/svg"
   xmlns:svg="http://www.w3.org/2000/svg">
  <defs
     id="defs1">
    <clipPath
       clipPathUnits="userSpaceOnUse"
       id="clipPath159">
      <path
         d="M 0,1977.645 H 1920 V 0 H 0 Z"
         transform="translate(-1718.4319,-535.53779)"
         id="path159" />
    </clipPath>
    <clipPath
       clipPathUnits="userSpaceOnUse"
       id="clipPath161">
      <path
         d="M 0,1977.645 H 1920 V 0 H 0 Z"
         transform="translate(-1693.9321,-478.33079)"
         id="path161" />
    </clipPath>
    <clipPath
       clipPathUnits="userSpaceOnUse"
       id="clipPath163">
      <path
         d="M 0,1977.645 H 1920 V 0 H 0 Z"
         transform="translate(-1700.9907,-509.94689)"
         id="path163" />
    </clipPath>
    <clipPath
       clipPathUnits="userSpaceOnUse"
       id="clipPath165">
      <path
         d="M 0,1977.645 H 1920 V 0 H 0 Z"
         transform="translate(-1700.9907,-509.94689)"
         id="path165" />
    </clipPath>
  </defs>
  <g
     id="layer1"
     transform="translate(-51.329164,-78.845831)">
    <path
       id="path158"
       d="m 0,0 c -7.215,0.081 -13.24,-1.662 -18.655,-5.256 -9.114,-6.049 -14.179,-14.616 -15.096,-25.503 -0.485,-5.75 0.631,-11.29 3.119,-16.533 0.214,-0.45 0.268,-1.065 0.171,-1.559 -1.019,-5.158 -2.089,-10.307 -3.134,-15.461 -0.39,-1.925 0.362,-2.639 2.271,-2.19 4.939,1.162 9.873,2.348 14.824,3.456 0.658,0.147 1.479,0.067 2.1,-0.199 6.399,-2.748 12.986,-3.653 19.864,-2.31 17.885,3.494 29.686,20.606 26.381,38.443 C 28.791,-10.627 14.367,0.227 0,0 m 55.948,-0.109 v -66.434 c -0.17,-1.082 -0.343,-2.164 -0.508,-3.247 -1.459,-9.565 -9.035,-17.555 -18.52,-19.49 -1.54,-0.314 -3.108,-0.494 -4.662,-0.736 H -33.72 c -0.539,0.098 -1.078,0.203 -1.619,0.291 -1.267,0.207 -2.559,0.314 -3.801,0.622 -9.895,2.45 -18.142,11.265 -18.162,23.775 -0.034,21.33 -0.025,42.66 0.005,63.99 0.005,3.87 0.682,7.648 2.499,11.111 4.712,8.979 12.279,13.424 22.316,13.466 21.178,0.089 42.356,0.035 63.534,0.01 1.54,-0.002 3.093,-0.167 4.617,-0.402 9.737,-1.499 17.519,-8.915 19.562,-18.621 0.301,-1.432 0.481,-2.889 0.717,-4.335"
       style="fill:#2cb742 icc-color(sRGB-IEC61966-2, 0.1, 0.17298889, 0.71798706, 0.25898743);fill-opacity:1;fill-rule:nonzero;stroke:none"
       transform="matrix(0.35277776,0,0,-0.35277776,71.55172,87.0614)"
       clip-path="url(#clipPath159)" />
    <path
       id="path160"
       d="M 0,0 C 2.894,0.685 5.552,1.251 8.171,1.96 9.429,2.301 10.486,2.19 11.642,1.578 16.888,-1.196 22.436,-2.063 28.319,-1.08 42.38,1.268 52.026,15.673 48.811,29.629 45.616,43.502 32.548,52.043 18.558,49.226 7.591,47.017 -0.782,37.934 -1.79,26.242 -2.209,21.375 -1.328,16.671 1.051,12.364 1.903,10.823 2.023,9.409 1.603,7.744 0.976,5.261 0.553,2.726 0,0 M 24.5,57.207 C 38.867,57.434 53.291,46.58 56.345,30.095 59.649,12.258 47.849,-4.854 29.964,-8.348 23.085,-9.691 16.499,-8.785 10.099,-6.038 9.479,-5.772 8.658,-5.692 8,-5.839 3.048,-6.947 -1.885,-8.133 -6.825,-9.295 c -1.908,-0.449 -2.66,0.266 -2.27,2.19 1.044,5.154 2.115,10.303 3.134,15.461 0.097,0.494 0.042,1.109 -0.171,1.559 -2.488,5.243 -3.604,10.783 -3.12,16.533 0.918,10.887 5.983,19.454 15.096,25.503 5.416,3.594 11.441,5.337 18.656,5.256"
       style="fill:#ffffff;fill-opacity:1;fill-rule:nonzero;stroke:none"
       transform="matrix(0.35277776,0,0,-0.35277776,62.908736,107.24276)"
       clip-path="url(#clipPath161)" />
    <path
       id="path162"
       d="m 0,0 c -0.099,-1.782 0.368,-3.725 1.252,-5.518 3.676,-7.459 9.536,-12.725 16.869,-16.426 2.356,-1.189 4.912,-1.704 7.571,-1.724 3.769,-0.027 6.253,2.005 8.199,4.965 1.27,1.933 0.649,3.722 -1.561,4.373 -1.904,0.56 -3.833,1.038 -5.726,1.632 -1.172,0.368 -2.09,0.053 -2.916,-0.752 -0.37,-0.36 -0.722,-0.739 -1.09,-1.1 -1.06,-1.04 -2.003,-1.24 -3.284,-0.498 -1.175,0.68 -2.379,1.385 -3.37,2.297 -2.242,2.066 -4.426,4.205 -6.502,6.438 -1.026,1.105 -0.878,2.08 0.025,3.293 0.395,0.532 0.92,1.018 1.141,1.616 0.252,0.683 0.508,1.572 0.277,2.189 C 10.06,2.987 9.089,5.142 8.053,7.256 7.408,8.572 5.675,9.03 4.537,8.146 1.972,6.154 -0.143,3.836 0,0 m -7.059,-31.616 c 0.554,2.726 0.976,5.261 1.603,7.744 0.421,1.664 0.3,3.079 -0.551,4.62 -2.38,4.307 -3.261,9.011 -2.842,13.878 1.008,11.692 9.381,20.775 20.349,22.983 13.989,2.818 27.057,-5.723 30.252,-19.596 3.215,-13.956 -6.43,-28.361 -20.492,-30.709 -5.883,-0.983 -11.431,-0.116 -16.677,2.658 -1.156,0.611 -2.213,0.723 -3.471,0.382 -2.619,-0.709 -5.277,-1.275 -8.171,-1.96"
       style="fill:#2cb742 icc-color(sRGB-IEC61966-2, 0.1, 0.17298889, 0.71798706, 0.25898743);fill-opacity:1;fill-rule:nonzero;stroke:none"
       transform="matrix(0.35277776,0,0,-0.35277776,65.398862,96.0893)"
       clip-path="url(#clipPath163)" />
    <path
       id="path164"
       d="M 0,0 C -0.143,3.836 1.972,6.154 4.537,8.146 5.675,9.03 7.408,8.572 8.053,7.256 9.089,5.142 10.06,2.987 10.885,0.785 11.116,0.168 10.86,-0.721 10.608,-1.404 10.387,-2.002 9.862,-2.488 9.467,-3.02 8.564,-4.233 8.416,-5.208 9.442,-6.313 c 2.076,-2.233 4.26,-4.372 6.502,-6.438 0.991,-0.912 2.195,-1.617 3.37,-2.297 1.281,-0.742 2.224,-0.542 3.284,0.498 0.368,0.361 0.72,0.74 1.09,1.1 0.826,0.805 1.744,1.12 2.916,0.752 1.893,-0.594 3.822,-1.072 5.726,-1.632 2.21,-0.651 2.831,-2.44 1.561,-4.373 -1.946,-2.96 -4.43,-4.992 -8.199,-4.965 -2.659,0.02 -5.215,0.535 -7.571,1.724 C 10.788,-18.243 4.928,-12.977 1.252,-5.518 0.368,-3.725 -0.099,-1.782 0,0"
       style="fill:#ffffff;fill-opacity:1;fill-rule:nonzero;stroke:none"
       transform="matrix(0.35277776,0,0,-0.35277776,65.398862,96.0893)"
       clip-path="url(#clipPath165)" />
  </g>
</svg>
