<?xml version="1.0" encoding="UTF-8" standalone="no"?>
<!-- Created with Inkscape (http://www.inkscape.org/) -->

<svg
   width="11.197168mm"
   height="11.197169mm"
   viewBox="0 0 11.197168 11.197169"
   version="1.1"
   id="svg1"
   xmlns="http://www.w3.org/2000/svg"
   xmlns:svg="http://www.w3.org/2000/svg">
  <defs
     id="defs1">
    <clipPath
       clipPathUnits="userSpaceOnUse"
       id="clipPath114">
      <path
         d="M 0,1977.645 H 1920 V 0 H 0 Z"
         transform="translate(-1231.1913,-1940.4346)"
         id="path114" />
    </clipPath>
    <clipPath
       clipPathUnits="userSpaceOnUse"
       id="clipPath118">
      <path
         d="M 0,1977.645 H 1920 V 0 H 0 Z"
         transform="translate(-1233.8496,-1920.8142)"
         id="path118" />
    </clipPath>
    <clipPath
       clipPathUnits="userSpaceOnUse"
       id="clipPath116">
      <path
         d="M 0,1977.645 H 1920 V 0 H 0 Z"
         transform="translate(-1224.8419,-1918.1407)"
         id="path116" />
    </clipPath>
  </defs>
  <g
     id="layer1"
     transform="translate(-75.738458,-144.53445)">
    <path
       id="path113"
       d="m 0,0 c -8.765,0 -15.87,-7.105 -15.87,-15.87 0,-8.765 7.105,-15.87 15.87,-15.87 8.765,0 15.87,7.105 15.87,15.87 C 15.87,-7.105 8.765,0 0,0 m 0,-2.172 c 7.553,0 13.698,-6.145 13.698,-13.698 0,-7.553 -6.145,-13.698 -13.698,-13.698 -7.553,0 -13.698,6.145 -13.698,13.698 0,7.553 6.145,13.698 13.698,13.698"
       style="fill:#ffffff;fill-opacity:1;fill-rule:nonzero;stroke:none"
       transform="matrix(0.35277776,0,0,-0.35277776,81.33704,144.53445)"
       clip-path="url(#clipPath114)" />
    <path
       id="path115"
       d="m 0,0 c 0.868,0.226 1.668,0.426 2.46,0.649 0.224,0.06 0.397,0.028 0.595,-0.087 1.5,-0.864 3.107,-1.187 4.825,-0.91 3.956,0.634 6.665,4.335 6.06,8.275 C 13.312,12.012 9.483,14.752 5.436,14.01 0.54,13.111 -2.059,7.653 0.375,3.331 0.645,2.852 0.719,2.457 0.538,1.948 0.322,1.335 0.188,0.695 0,0 m -2.029,-2.002 c 0.098,0.38 0.183,0.709 0.272,1.04 0.289,1.055 0.585,2.108 0.86,3.166 0.04,0.158 0.023,0.367 -0.052,0.509 -2.681,5.11 0.085,11.295 5.711,12.615 5.109,1.198 9.702,-2.25 10.54,-6.862 C 16.174,3.657 13.028,-0.913 8.256,-1.748 6.359,-2.076 4.546,-1.797 2.814,-0.955 2.66,-0.879 2.443,-0.858 2.278,-0.897 -0.029,-1.476 -1.564,-1.911 -2.029,-2.002"
       style="fill:#ffffff;fill-opacity:1;fill-rule:evenodd;stroke:none"
       transform="matrix(0.35277776,0,0,-0.35277776,79.097104,152.39924)"
       clip-path="url(#clipPath116)" />
    <path
       id="path117"
       d="m 0,0 c -1.701,0.061 -4.411,1.404 -6.267,4.628 -0.66,1.146 -0.565,2.453 0.401,3.35 0.327,0.304 0.736,0.23 1.119,0.165 0.095,-0.014 0.193,-0.158 0.24,-0.265 C -4.26,7.316 -4.016,6.753 -3.801,6.176 -3.687,5.872 -3.896,5.586 -4.337,5.079 -4.477,4.919 -4.506,4.77 -4.396,4.584 -3.682,3.375 -2.685,2.501 -1.372,1.988 -1.18,1.913 -1.036,1.96 -0.913,2.111 -0.218,2.959 -0.147,3.208 0.219,3.034 1.979,2.192 2.117,2.157 2.125,1.958 2.185,0.474 0.825,-0.06 0,0"
       style="fill:#ffffff;fill-opacity:1;fill-rule:evenodd;stroke:none"
       transform="matrix(0.35277776,0,0,-0.35277776,82.274803,151.45609)"
       clip-path="url(#clipPath118)" />
  </g>
</svg>
